<svg xmlns="http://www.w3.org/2000/svg" enable-background="new 0 0 64 64" viewBox="0 0 64 64"><path fill="#791e94" d="M24,24l0.03,0.023l5.17-1.961L29,22l0.199,0.062L32,21c4.971,0,9-4.029,9-9s-4.029-9-9-9  C15.984,3,3,15.984,3,32l21.03-7.977L24,24z M25,12l-13,5L25,12z M29,16L8,24L29,16z"/><path fill="#791e94" d="M41,12c0,4.971-4.029,9-9,9l-2.801,1.062l12.829,4.009L42,26l0.029,0.071L61,32  C61,15.984,48.016,3,32,3C36.971,3,41,7.029,41,12z"/><polygon fill="#ff9bc6" points="24.03 24.023 33 31 32 27 44 31 42.029 26.071 29.199 22.062"/><path fill="#f7bc4f" d="M32,61c16.016,0,29-12.984,29-29l-18.971-5.929L44,31l-12-4l1,4l-8.97-6.977L3,32  C3,48.016,15.984,61,32,61z M43,45v-4V45z M51,45v-4V45z M40,35c0,3.866,3.134,7,7,7s7-3.134,7-7v8v-8c0,3.866-3.134,7-7,7v3v-3  C43.134,42,40,38.866,40,35v8V35z M13,45v-4V45z M21,45v-4V45z M10,43v-8c0,3.866,3.134,7,7,7s7-3.134,7-7v8v-8c0,3.866-3.134,7-7,7  v3v-3c-3.866,0-7-3.134-7-7V43z"/><path fill="#1f0828" d="M32,62c16.542,0,30-13.458,30-30S48.542,2,32,2S2,15.458,2,32S15.458,62,32,62z M59.941,30.621  l-27.623-8.632C37.685,21.82,42,17.408,42,12c0-2.777-1.138-5.293-2.972-7.107C50.647,7.907,59.334,18.221,59.941,30.621z   M42.271,29.37l-9.954-3.318c-0.344-0.115-0.728-0.033-0.996,0.215c-0.268,0.248-0.379,0.623-0.29,0.977l0.297,1.189l-5.278-4.106  l3.181-1.207l12.046,3.764L42.271,29.37z M32,4c4.411,0,8,3.589,8,8s-3.589,8-8,8c-0.121,0-0.241,0.022-0.354,0.065L4.038,30.537  C4.802,15.775,17.051,4,32,4z M23.859,25.157l8.527,6.632c0.338,0.262,0.804,0.282,1.16,0.048c0.357-0.233,0.527-0.667,0.424-1.081  l-0.558-2.232l10.271,3.424C43.787,31.983,43.895,32,44,32c0.271,0,0.535-0.11,0.728-0.314c0.268-0.283,0.346-0.696,0.201-1.058  l-1.19-2.975l16.243,5.076C59.592,47.832,47.195,60,32,60C16.791,60,4.375,47.81,4.009,32.687L23.859,25.157z"/><path fill="#1f0828" d="M14 45v-2.589c.631.256 1.302.432 2 .52V45h2v-2.069c.698-.088 1.369-.263 2-.52V45h2v-3.765c.361-.29.694-.614 1-.961V43h2v-8h-2c0 3.309-2.691 6-6 6s-6-2.691-6-6H9v8h2v-2.726c.306.348.639.671 1 .961V45H14zM41 40.274c.306.348.639.671 1 .961V45h2v-2.589c.631.256 1.302.432 2 .52V45h2v-2.069c.698-.088 1.369-.263 2-.52V45h2v-3.765c.361-.29.694-.614 1-.961V43h2v-8h-2c0 3.309-2.691 6-6 6s-6-2.691-6-6h-2v8h2V40.274z"/><rect width="22.472" height="2" x="7.264" y="19" fill="#1f0828" transform="rotate(-20.852 18.5 20)"/><rect width="13.928" height="2.001" x="11.536" y="13.5" fill="#1f0828" transform="rotate(-21.052 18.502 14.501)"/></svg>